<svg xmlns="http://www.w3.org/2000/svg" viewBox="0 0 32 32"><title>History Timeline</title><rect width="32" height="32" rx="7" fill="#0a0a0a"/><g fill="none" stroke="#fff" stroke-width="2.2" stroke-linecap="round" stroke-linejoin="round"><path d="M8 6h16"/><path d="M8 26h16"/><path d="M10 6c0 5 6 6 6 10s-6 5-6 10"/><path d="M22 6c0 5-6 6-6 10s6 5 6 10"/></g><path d="M16 16c2.3 1.8 3.9 2.8 3.9 6.4h-7.8c0-3.6 1.6-4.6 3.9-6.4z" fill="#fbbf24"/><path d="M16 16c-1.7-1.2-2.9-2-2.9-4.5h5.8c0 2.5-1.2 3.3-2.9 4.5z" fill="#fbbf24"/></svg>